<?xml version="1.0" standalone="no"?>
<!DOCTYPE svg PUBLIC "-//W3C//DTD SVG 20010904//EN"
 "http://www.w3.org/TR/2001/REC-SVG-20010904/DTD/svg10.dtd">
<svg version="1.0" xmlns="http://www.w3.org/2000/svg"
 width="879.000000pt" height="879.000000pt" viewBox="0 0 879.000000 879.000000"
 preserveAspectRatio="xMidYMid meet">
<metadata>
Created by potrace 1.11, written by Peter Selinger 2001-2013
</metadata>
<g transform="translate(0.000000,879.000000) scale(0.100000,-0.100000)"
fill="#000000" stroke="none">
<path d="M3825 8640 c-16 -4 -50 -8 -75 -9 -25 -1 -65 -10 -89 -21 -24 -11
-65 -20 -91 -20 -26 0 -65 -7 -86 -16 -22 -9 -64 -20 -94 -25 -132 -20 -169
-28 -198 -43 -17 -9 -40 -16 -52 -16 -11 0 -38 -9 -60 -20 -22 -11 -47 -20
-57 -20 -10 0 -28 -7 -41 -15 -12 -9 -52 -24 -89 -34 -38 -9 -120 -43 -183
-74 -63 -31 -121 -57 -127 -57 -21 0 -155 -62 -208 -96 -27 -18 -81 -48 -119
-69 -39 -20 -88 -48 -110 -63 -23 -15 -52 -33 -66 -40 -49 -25 -244 -169 -434
-321 -99 -78 -456 -430 -534 -526 -31 -38 -64 -76 -72 -85 -25 -26 -77 -92
-114 -145 -110 -157 -239 -358 -258 -400 -7 -16 -41 -77 -75 -135 -35 -57 -63
-109 -63 -114 0 -5 -21 -53 -46 -105 -73 -152 -82 -173 -94 -221 -6 -25 -20
-62 -31 -82 -10 -20 -19 -44 -19 -53 0 -8 -9 -32 -20 -52 -11 -21 -20 -47 -20
-59 0 -12 -12 -55 -26 -95 -14 -41 -29 -101 -33 -134 -4 -33 -14 -76 -23 -95
-34 -79 -58 -168 -58 -221 0 -31 -7 -78 -15 -105 -27 -86 -39 -289 -38 -664 0
-384 11 -583 37 -664 9 -27 16 -78 16 -113 0 -44 6 -76 20 -103 11 -22 20 -55
20 -75 0 -20 9 -53 20 -75 11 -22 20 -53 20 -70 0 -17 8 -45 17 -63 16 -31 20
-45 42 -150 6 -26 17 -58 26 -70 8 -12 15 -31 15 -42 0 -11 7 -31 17 -44 9
-13 20 -43 24 -67 8 -41 28 -91 106 -254 95 -200 191 -383 241 -458 20 -31 43
-69 51 -83 11 -22 86 -125 228 -314 118 -157 504 -547 683 -689 172 -137 524
-376 554 -376 6 0 22 -6 36 -13 14 -8 61 -33 105 -57 171 -92 192 -102 245
-122 30 -12 64 -27 75 -34 11 -8 26 -14 35 -14 8 0 32 -9 53 -20 20 -11 42
-20 48 -20 5 0 34 -11 63 -25 29 -14 76 -29 105 -35 29 -5 62 -17 74 -25 12
-8 33 -15 47 -15 14 0 42 -9 63 -20 20 -11 47 -20 59 -20 42 0 171 -31 192
-45 12 -9 43 -15 75 -15 33 0 71 -8 95 -19 63 -29 172 -34 786 -34 572 0 705
6 772 36 21 10 56 17 78 17 23 0 55 8 73 17 30 16 72 25 177 39 25 3 63 15 86
25 22 10 51 19 65 19 13 0 34 6 45 14 12 8 55 24 98 35 42 11 86 27 98 36 13
8 30 15 39 15 9 0 57 20 107 45 49 25 94 45 99 45 18 0 360 177 435 226 42 27
112 71 155 98 43 27 103 68 133 91 30 23 65 45 78 49 13 4 51 33 85 65 34 31
85 74 112 96 80 62 513 502 570 579 29 39 65 85 80 101 14 17 54 71 87 120 34
50 72 102 84 118 67 81 307 524 358 662 11 28 25 59 33 70 7 11 13 25 13 33 0
7 18 51 40 98 22 47 40 92 40 101 0 26 40 152 50 158 6 3 10 20 10 36 0 16 9
47 20 69 11 22 20 53 20 70 0 17 5 41 12 53 14 25 36 140 47 242 4 39 14 81
21 95 22 39 33 259 33 665 -1 429 -8 584 -30 640 -9 22 -20 76 -24 120 -11
111 -29 205 -45 237 -8 15 -14 44 -14 65 -1 21 -9 56 -20 78 -11 22 -19 48
-20 57 0 10 -9 32 -20 50 -11 18 -20 44 -20 57 0 36 -29 121 -81 239 -10 23
-19 51 -19 62 0 10 -4 21 -9 24 -5 3 -19 32 -31 63 -35 87 -114 245 -229 458
-9 17 -36 58 -59 92 -23 34 -46 72 -51 85 -5 13 -27 45 -50 73 -22 27 -41 54
-41 59 0 5 -15 27 -34 50 -62 76 -133 171 -146 196 -22 42 -501 519 -570 568
-36 25 -90 69 -120 98 -30 29 -72 62 -94 74 -21 11 -59 39 -85 60 -45 39 -285
194 -393 255 -121 68 -165 91 -198 104 -19 8 -77 33 -128 57 -51 24 -98 44
-105 44 -7 0 -21 6 -32 14 -11 7 -49 22 -85 31 -36 10 -82 26 -102 37 -21 10
-44 18 -53 18 -8 0 -32 9 -52 20 -21 11 -48 20 -61 20 -13 0 -37 8 -55 17 -34
18 -80 28 -190 42 -37 5 -73 14 -81 20 -8 7 -47 15 -88 20 -41 5 -85 14 -98
21 -14 7 -54 17 -90 23 -78 12 -1162 18 -1205 7z m4285 -3890 c6 -74 14 -164
20 -200 17 -115 12 -179 -19 -230 -18 -30 -35 -46 -52 -48 -13 -2 -27 -10 -31
-17 -4 -7 -20 -16 -34 -19 -15 -4 -33 -14 -41 -21 -8 -8 -25 -15 -38 -15 -12
0 -25 -6 -28 -14 -3 -8 -19 -17 -35 -21 -17 -3 -33 -13 -36 -21 -3 -8 -19 -14
-36 -14 -19 0 -30 -5 -30 -14 0 -8 -15 -17 -34 -20 -19 -4 -37 -13 -40 -21 -3
-9 -18 -15 -36 -15 -20 0 -30 -5 -30 -15 0 -9 -9 -15 -25 -15 -14 0 -33 -9
-42 -20 -10 -11 -28 -20 -41 -20 -12 0 -25 -7 -28 -15 -4 -8 -16 -15 -29 -15
-12 0 -30 -9 -40 -20 -10 -11 -28 -20 -40 -20 -13 0 -25 -7 -29 -15 -3 -8 -16
-15 -28 -15 -13 0 -31 -9 -41 -20 -9 -11 -25 -20 -36 -20 -10 0 -24 -7 -31
-15 -7 -8 -22 -15 -34 -15 -12 0 -29 -9 -39 -20 -9 -11 -25 -20 -36 -20 -10 0
-24 -7 -31 -15 -7 -8 -20 -15 -30 -15 -10 0 -23 -6 -29 -14 -7 -8 -25 -18 -41
-21 -16 -3 -34 -13 -41 -21 -6 -8 -19 -14 -28 -14 -9 0 -21 -4 -26 -9 -16 -16
-105 -61 -121 -61 -7 0 -14 -4 -14 -9 0 -5 -15 -15 -34 -21 -19 -6 -40 -18
-46 -26 -7 -7 -21 -14 -31 -14 -19 0 -19 -9 -17 -177 l3 -178 645 -5 645 -5 3
-28 c2 -15 -3 -41 -12 -57 -8 -16 -17 -44 -21 -61 -4 -16 -13 -42 -21 -57 -8
-15 -14 -37 -14 -48 0 -12 -7 -27 -15 -34 -8 -7 -15 -20 -15 -29 0 -9 -9 -33
-20 -54 -11 -20 -20 -43 -20 -51 0 -7 -6 -19 -14 -25 -8 -7 -17 -23 -21 -38
-3 -14 -13 -32 -20 -40 -8 -8 -15 -23 -15 -34 0 -11 -6 -22 -14 -25 -8 -3 -18
-19 -21 -35 -4 -16 -11 -29 -16 -29 -5 0 -11 -11 -15 -25 -3 -14 -12 -25 -19
-25 -7 0 -15 -7 -19 -15 -3 -8 -12 -15 -21 -15 -8 0 -15 -4 -15 -10 0 -7 -165
-10 -475 -10 l-475 0 0 -99 c0 -75 -4 -101 -15 -111 -11 -9 -15 -34 -15 -96 0
-57 -4 -87 -14 -96 -7 -8 -17 -33 -21 -57 -4 -23 -13 -45 -21 -48 -8 -3 -14
-13 -14 -23 0 -11 -5 -22 -10 -25 -6 -4 -17 -22 -25 -41 -8 -19 -19 -34 -24
-34 -6 0 -11 -5 -11 -10 0 -14 -41 -72 -57 -83 -7 -4 -13 -15 -13 -22 0 -8 -6
-15 -14 -15 -8 0 -18 -9 -21 -20 -3 -11 -11 -20 -16 -20 -5 0 -22 -12 -37 -27
-36 -36 -88 -73 -103 -73 -6 0 -22 -9 -36 -20 -14 -11 -31 -20 -38 -20 -7 0
-15 -7 -19 -15 -3 -10 -19 -15 -42 -15 -21 0 -46 -8 -61 -20 -15 -12 -41 -20
-63 -20 -21 0 -51 -7 -66 -15 -25 -13 -214 -15 -1496 -15 -1226 0 -1468 2
-1475 14 -4 7 -30 16 -57 19 -30 3 -52 11 -58 21 -5 9 -22 16 -37 16 -16 0
-31 6 -34 14 -3 7 -19 16 -36 19 -18 4 -31 13 -31 22 0 8 -8 15 -18 15 -19 0
-52 22 -80 53 -9 9 -22 17 -29 17 -7 0 -13 7 -13 15 0 8 -5 15 -11 15 -14 0
-59 47 -59 61 0 5 -6 9 -14 9 -8 0 -17 9 -21 19 -3 11 -12 22 -20 25 -8 3 -15
12 -15 20 0 7 -7 16 -15 20 -8 3 -15 14 -15 24 0 10 -9 27 -20 37 -11 10 -20
28 -20 40 0 13 -6 25 -14 28 -7 3 -16 24 -19 46 -3 22 -12 48 -21 56 -11 12
-16 36 -16 83 -1 43 -6 74 -15 86 -11 15 -15 49 -15 133 l0 113 -471 0 -471 0
-38 28 c-23 16 -50 49 -66 80 -14 28 -30 52 -35 52 -5 0 -9 8 -10 18 0 9 -14
40 -30 67 -16 28 -32 57 -35 65 -12 32 -46 106 -60 132 -8 14 -14 34 -14 43 0
9 -6 29 -14 43 -24 48 -56 156 -56 189 l0 33 648 2 647 3 3 178 c2 167 1 177
-16 177 -11 0 -29 9 -42 20 -13 11 -31 20 -40 20 -10 0 -23 7 -30 15 -7 8 -21
15 -31 15 -9 0 -24 7 -32 15 -8 7 -26 17 -40 20 -15 4 -31 13 -38 21 -6 8 -20
14 -30 14 -9 0 -24 7 -32 15 -8 7 -27 17 -42 21 -14 4 -29 13 -32 20 -3 8 -16
14 -28 14 -13 0 -30 7 -38 15 -8 7 -27 17 -42 21 -14 4 -29 13 -32 20 -3 8
-15 14 -28 14 -12 0 -28 7 -35 15 -7 8 -21 15 -31 15 -11 0 -28 9 -39 20 -11
11 -28 20 -39 20 -10 0 -24 7 -31 15 -7 8 -21 15 -31 15 -11 0 -28 9 -39 20
-11 11 -28 20 -39 20 -10 0 -24 7 -31 15 -7 8 -21 15 -31 15 -11 0 -28 9 -39
20 -11 11 -28 20 -39 20 -10 0 -24 7 -31 15 -7 8 -20 15 -30 15 -9 0 -29 9
-43 20 -14 11 -32 20 -40 20 -8 0 -20 7 -27 15 -7 8 -20 15 -30 15 -9 0 -27 9
-40 20 -13 11 -31 20 -40 20 -10 0 -23 7 -30 15 -7 8 -20 15 -30 15 -9 0 -27
9 -40 20 -13 11 -32 20 -42 20 -10 0 -21 7 -24 15 -4 8 -17 15 -30 15 -15 0
-24 6 -24 15 0 8 -9 24 -20 35 -18 18 -20 33 -20 138 1 64 5 137 10 162 5 25
14 103 20 175 7 87 15 134 25 145 8 9 15 22 15 28 0 7 5 12 10 12 6 0 10 -4
10 -10 0 -5 11 -10 24 -10 13 0 34 -8 47 -18 13 -11 36 -22 52 -26 15 -3 27
-11 27 -16 0 -6 11 -10 25 -10 14 0 33 -9 42 -20 10 -11 28 -20 41 -20 12 0
25 -7 28 -15 4 -9 19 -15 35 -15 17 0 32 -6 35 -15 3 -8 21 -17 39 -21 19 -3
36 -12 39 -20 3 -8 19 -14 35 -14 16 0 31 -6 35 -15 3 -8 14 -15 24 -15 11 0
31 -9 45 -20 14 -11 34 -20 45 -20 11 0 27 -6 34 -14 8 -7 29 -17 47 -21 18
-4 35 -13 38 -21 3 -8 16 -14 28 -14 13 0 30 -6 37 -14 8 -7 29 -17 46 -21 18
-3 32 -13 32 -21 0 -9 11 -14 30 -14 18 0 33 -6 36 -15 4 -8 17 -15 30 -15 13
0 32 -9 41 -20 10 -11 29 -20 44 -20 15 0 29 -7 33 -15 3 -8 16 -15 28 -15 13
0 34 -9 48 -20 14 -11 32 -20 41 -20 8 0 24 -7 35 -15 10 -8 27 -15 37 -15 9
0 26 -9 37 -20 11 -11 29 -20 39 -20 11 0 26 -7 35 -15 8 -8 24 -15 35 -15 12
0 29 -9 38 -20 10 -11 28 -20 41 -20 12 0 25 -7 28 -15 5 -13 251 -15 2125
-15 1875 0 2120 2 2125 15 4 8 16 15 29 15 12 0 32 9 45 20 13 11 33 20 45 20
13 0 25 7 29 15 3 8 15 15 27 15 11 0 32 9 46 20 14 11 32 20 40 20 8 0 21 7
29 15 9 8 25 15 36 15 11 0 31 9 45 20 14 11 34 20 43 20 10 0 23 7 30 15 7 8
22 15 35 15 12 0 30 9 40 20 10 11 30 20 45 20 16 0 30 7 34 15 3 9 18 15 36
15 20 0 30 5 30 15 0 8 14 17 34 21 19 3 37 12 40 20 3 8 19 14 35 14 16 0 31
6 34 14 3 8 19 17 36 21 16 3 35 13 42 21 6 8 22 14 34 14 12 0 28 6 34 14 7
8 25 18 41 21 16 3 34 13 41 21 6 8 22 14 34 14 12 0 28 7 35 15 7 8 27 17 45
21 19 3 36 12 39 20 3 8 19 14 36 14 20 0 30 5 30 15 0 10 10 15 28 15 15 0
35 9 45 20 9 11 28 20 41 20 13 0 26 7 30 15 3 8 15 15 27 15 11 0 32 9 46 20
14 11 34 20 43 20 10 0 23 7 30 15 23 28 50 -72 60 -225z"/>
</g>
</svg>
